<?xml version="1.0" encoding="utf-8"?>
<!-- Generator: Adobe Illustrator 17.0.0, SVG Export Plug-In . SVG Version: 6.00 Build 0)  -->
<!DOCTYPE svg PUBLIC "-//W3C//DTD SVG 1.1//EN" "http://www.w3.org/Graphics/SVG/1.1/DTD/svg11.dtd">
<svg version="1.1" id="Layer_1" xmlns="http://www.w3.org/2000/svg" xmlns:xlink="http://www.w3.org/1999/xlink" x="0px" y="0px"
	 width="95.497px" height="117.523px" viewBox="0 0 95.497 117.523" enable-background="new 0 0 95.497 117.523"
	 xml:space="preserve">
<g>
	<defs>
		<rect id="SVGID_1_" y="0" width="95.497" height="117.523"/>
	</defs>
	<clipPath id="SVGID_2_">
		<use xlink:href="#SVGID_1_"  overflow="visible"/>
	</clipPath>
	<path clip-path="url(#SVGID_2_)" fill="#FFFFFF" d="M47.288,70.797L47.288,70.797c-12.399,0-22.45-10.051-22.45-22.45V31.625
		c0-12.399,10.051-22.45,22.45-22.45s22.45,10.051,22.45,22.45v16.722C69.738,60.746,59.687,70.797,47.288,70.797"/>
	<path clip-path="url(#SVGID_2_)" fill="none" stroke="#4D5972" stroke-width="3" stroke-miterlimit="10" d="M47.288,70.797
		L47.288,70.797c-12.399,0-22.45-10.051-22.45-22.45V31.625c0-12.399,10.051-22.45,22.45-22.45s22.45,10.051,22.45,22.45v16.722
		C69.738,60.746,59.687,70.797,47.288,70.797z"/>
	<path clip-path="url(#SVGID_2_)" fill="#FFFFFF" d="M1.586,116.023c1.327-23.769,7.596-39.307,32.668-43.259l11.929,17.265
		c0.351,0.509,0.94,0.816,1.555,0.816c0.621,0,1.21-0.307,1.55-0.816l11.949-17.265c25.056,3.95,31.325,19.487,32.672,43.259H1.586z
		"/>
	<path clip-path="url(#SVGID_2_)" fill="none" stroke="#4D5972" stroke-width="3" stroke-miterlimit="10" d="M1.586,116.023
		c1.327-23.769,7.596-39.307,32.668-43.259l11.929,17.265c0.351,0.509,0.94,0.816,1.555,0.816c0.621,0,1.21-0.307,1.55-0.816
		l11.949-17.265c25.056,3.95,31.325,19.487,32.672,43.259H1.586z"/>
	<path clip-path="url(#SVGID_2_)" fill="#00B5E0" d="M76.188,44.835L76.188,44.835c-1.905,0-3.45-1.545-3.45-3.45v-9.81
		c0-1.905,1.545-3.45,3.45-3.45c1.905,0,3.45,1.545,3.45,3.45v9.81C79.638,43.29,78.093,44.835,76.188,44.835"/>
	<path clip-path="url(#SVGID_2_)" fill="none" stroke="#00B5E0" stroke-width="3" stroke-miterlimit="10" d="M76.188,44.835
		L76.188,44.835c-1.905,0-3.45-1.545-3.45-3.45v-9.81c0-1.905,1.545-3.45,3.45-3.45c1.905,0,3.45,1.545,3.45,3.45v9.81
		C79.638,43.29,78.093,44.835,76.188,44.835z"/>
	<path clip-path="url(#SVGID_2_)" fill="#00B5E0" d="M18.388,44.835L18.388,44.835c-1.905,0-3.45-1.545-3.45-3.45v-9.81
		c0-1.905,1.545-3.45,3.45-3.45c1.905,0,3.45,1.545,3.45,3.45v9.81C21.838,43.29,20.293,44.835,18.388,44.835"/>
	<path clip-path="url(#SVGID_2_)" fill="none" stroke="#00B5E0" stroke-width="3" stroke-miterlimit="10" d="M18.388,44.835
		L18.388,44.835c-1.905,0-3.45-1.545-3.45-3.45v-9.81c0-1.905,1.545-3.45,3.45-3.45c1.905,0,3.45,1.545,3.45,3.45v9.81
		C21.838,43.29,20.293,44.835,18.388,44.835z"/>
	<path clip-path="url(#SVGID_2_)" fill="none" stroke="#00B5E0" stroke-width="3" stroke-miterlimit="10" d="M14.938,35.71v6.13
		c0,10.15,8.22,18.37,18.37,18.37h4.261"/>
	<path clip-path="url(#SVGID_2_)" fill="#00B5E0" d="M48.132,63.585h-7.187c-1.864,0-3.376-1.511-3.376-3.375
		c0-1.864,1.512-3.375,3.376-3.375h7.187c1.864,0,3.375,1.511,3.375,3.375C51.507,62.074,49.996,63.585,48.132,63.585"/>
	<path clip-path="url(#SVGID_2_)" fill="none" stroke="#00B5E0" stroke-width="3" stroke-miterlimit="10" d="M48.132,63.585h-7.187
		c-1.864,0-3.376-1.511-3.376-3.375c0-1.864,1.512-3.375,3.376-3.375h7.187c1.864,0,3.375,1.511,3.375,3.375
		C51.507,62.074,49.996,63.585,48.132,63.585z"/>
	<path clip-path="url(#SVGID_2_)" fill="none" stroke="#00B5E0" stroke-width="3" stroke-miterlimit="10" d="M14.938,41.71V25
		c0-12.98,11.595-23.5,25.902-23.5h12.896c14.307,0,25.902,10.52,25.902,23.5v16.71"/>
</g>
</svg>
